/* XPM */
static char *_527198950775[] = {
/* columns rows colors chars-per-pixel */
"32 32 2 1 ",
"  c #0098B6",
". c None",
/* pixels */
"................................",
"............      ..............",
"..........          ............",
".........             ..........",
"..........             .........",
"......  ...  ....       ........",
"......   ..........     ........",
".....    ...........     .......",
".....    ............    .......",
".....    ............    .......",
".....    ............    .......",
"....     ............     ......",
".....    ............    .......",
".....    ............    .......",
".....    ............    .......",
".....     ..........     .......",
"......     ........     ........",
"......       .....      ........",
".......         ...    .........",
"........         ...  ..........",
".........         .. ...........",
"...........          ...........",
"...................  ...........",
"....................  ..........",
"....................   .........",
".....................  .........",
"......................  ........",
"......................  ........",
"....................... ........",
"....................... ........",
"................................",
"................................"
};
