/* XPM */
static char *_527198956162[] = {
/* columns rows colors chars-per-pixel */
"16 16 2 1 ",
"  c #0098B6",
". c None",
/* pixels */
"................",
".....     ......",
".....       ....",
"...  .....  ....",
"..   .....   ...",
"..  .......  ...",
"..  .......  ...",
"...  .....  ....",
"...   ...   ....",
"....    .. .....",
".....    .......",
".......... .....",
"..........  ....",
"........... ....",
"................",
"................"
};
