/* XPM */
static char *_527198946092[] = {
/* columns rows colors chars-per-pixel */
"64 64 2 1 ",
"  c #0098B6",
". c None",
/* pixels */
"................................................................",
"................................................................",
"..........................        ..............................",
".......................              ...........................",
"....................                    ........................",
"...................                      .......................",
"..................                         .....................",
"...................                         ....................",
"....................                         ...................",
".............. .....                          ..................",
".............   .....       ....               .................",
".............   ......   ..........            .................",
"............     ..... ..............           ................",
"...........       ....................           ...............",
"...........       .....................          ...............",
"..........         .....................          ..............",
"..........         ......................         ..............",
"..........         ......................         ..............",
"..........        ........................        ..............",
".........         ........................         .............",
".........        ..........................        .............",
".........        ..........................        .............",
".........        ..........................        .............",
".........        ..........................        .............",
".........        ..........................        .............",
".........        ..........................        .............",
".........         ........................         .............",
".........         ........................         .............",
"..........        ........................        ..............",
"..........         ......................         ..............",
"..........          .....................         ..............",
"...........         ....................         ...............",
"...........          ..................          ...............",
"............          ................          ................",
"............            ............            ................",
".............             ...........          .................",
"..............                   ....         ..................",
"...............                  .....       ...................",
"................                  .....     ....................",
".................                 .....    .....................",
"..................                 .....  ......................",
"....................                .... .......................",
"......................              ..   .......................",
".........................          ..     ......................",
"......................................    ......................",
"......................................     .....................",
".......................................     ....................",
"........................................    ....................",
"........................................     ...................",
".........................................     ..................",
".........................................     ..................",
"..........................................     .................",
"...........................................    .................",
"...........................................    .................",
"............................................   .................",
".............................................   ................",
".............................................   ................",
"..............................................  ................",
"............................................... ................",
"............................................... ................",
"................................................................",
"................................................................",
"................................................................",
"................................................................"
};
