/* XPM */
static char *_527198935356[] = {
/* columns rows colors chars-per-pixel */
"128 128 2 1 ",
"  c #0098B6",
". c None",
/* pixels */
"................................................................................................................................",
"................................................................................................................................",
"................................................................................................................................",
"................................................................................................................................",
"..........................................................    ..................................................................",
"..................................................                    ..........................................................",
"...............................................                          .......................................................",
"............................................                                ....................................................",
"..........................................                                    ..................................................",
"........................................                                        ................................................",
"......................................                                            ..............................................",
".....................................                                              .............................................",
"....................................                                                 ...........................................",
".....................................                                                 ..........................................",
"......................................                                                 .........................................",
"......................................                                                   .......................................",
".......................................                                                   ......................................",
"........................................                                                   .....................................",
"............................. ..........                                                   .....................................",
"............................   ..........                                                   ....................................",
"...........................    ..........                                                    ...................................",
"..........................      ..........            ............                            ..................................",
".........................        ..........        ..................                          .................................",
".........................        ..........      ......................                        .................................",
"........................          ..........   ..........................                       ................................",
".......................            ........................................                      ...............................",
".......................            .........................................                     ...............................",
"......................              .........................................                     ..............................",
"......................              ..........................................                    ..............................",
".....................                ..........................................                    .............................",
".....................                 ..........................................                   .............................",
".....................                 ...........................................                  .............................",
"....................                   ...........................................                  ............................",
"....................                  ............................................                  ............................",
"....................                 ..............................................                 ............................",
"...................                  ..............................................                  ...........................",
"...................                 ................................................                 ...........................",
"...................                 ................................................                 ...........................",
"...................                 ................................................                 ...........................",
"...................                ..................................................                ...........................",
"..................                 ..................................................                 ..........................",
"..................                 ..................................................                 ..........................",
"..................                 ..................................................                 ..........................",
"..................                 ...................................................                ..........................",
"..................                ....................................................                ..........................",
"..................                ....................................................                ..........................",
"..................                ....................................................                ..........................",
"..................                ....................................................                ..........................",
"..................                ....................................................                ..........................",
"..................                 ...................................................                ..........................",
"..................                 ..................................................                 ..........................",
"..................                 ..................................................                 ..........................",
"..................                 ..................................................                 ..........................",
"...................                ..................................................                ...........................",
"...................                 ................................................                 ...........................",
"...................                 ................................................                 ...........................",
"...................                 ................................................                 ...........................",
"...................                  ..............................................                  ...........................",
"....................                 ..............................................                 ............................",
"....................                  ............................................                  ............................",
"....................                   ..........................................                   ............................",
".....................                  ..........................................                  .............................",
".....................                   ........................................                   .............................",
"......................                   ......................................                   ..............................",
"......................                    ....................................                    ..............................",
"......................                     ..................................                     ..............................",
".......................                     ................................                     ...............................",
"........................                      ............................                      ................................",
"........................                       ..........................                       ................................",
".........................                        ........................                      .................................",
"..........................                         ......................                     ..................................",
"..........................                             ...................                    ..................................",
"...........................                                      ..........                  ...................................",
"............................                                     ..........                 ....................................",
".............................                                     ..........               .....................................",
"..............................                                     .........              ......................................",
"...............................                                    ..........            .......................................",
"................................                                    ..........          ........................................",
".................................                                    .........         .........................................",
"..................................                                   ..........       ..........................................",
"...................................                                   ..........    ............................................",
".....................................                                 ..........   .............................................",
"......................................                                 ......... ...............................................",
"........................................                                ......   ...............................................",
"..........................................                              ....      ..............................................",
"............................................                             .         .............................................",
"...............................................                         .          .............................................",
"...................................................                 ......          ............................................",
"...........................................................................          ...........................................",
"............................................................................         ...........................................",
"............................................................................          ..........................................",
".............................................................................         ..........................................",
".............................................................................          .........................................",
"..............................................................................          ........................................",
"...............................................................................         ........................................",
"...............................................................................          .......................................",
"................................................................................          ......................................",
".................................................................................         ......................................",
".................................................................................          .....................................",
"..................................................................................          ....................................",
"...................................................................................         ....................................",
"...................................................................................          ...................................",
"....................................................................................         ...................................",
"....................................................................................          ..................................",
".....................................................................................         ..................................",
"......................................................................................        ..................................",
"......................................................................................        ..................................",
".......................................................................................        .................................",
"........................................................................................       .................................",
"........................................................................................       .................................",
".........................................................................................      .................................",
"..........................................................................................     .................................",
"..........................................................................................     .................................",
"...........................................................................................     ................................",
"...........................................................................................     ................................",
"............................................................................................    ................................",
".............................................................................................   ................................",
".............................................................................................   ................................",
"..............................................................................................  ................................",
"...............................................................................................  ...............................",
"...............................................................................................  ...............................",
"................................................................................................ ...............................",
"................................................................................................................................",
"................................................................................................................................",
"................................................................................................................................",
"................................................................................................................................",
"................................................................................................................................",
"................................................................................................................................"
};
